<mxfile host="65bd71144e">
    <diagram id="nBs6KPEwt2rRH4-8kB8k" name="Lampu Lalulintas">
        <mxGraphModel dx="866" dy="622" grid="1" gridSize="10" guides="1" tooltips="1" connect="1" arrows="1" fold="1" page="1" pageScale="1" pageWidth="850" pageHeight="1100" math="0" shadow="0">
            <root>
                <mxCell id="0"/>
                <mxCell id="1" parent="0"/>
                <mxCell id="10" value="" style="edgeStyle=none;html=1;strokeWidth=3;" parent="1" source="2" target="3" edge="1">
                    <mxGeometry relative="1" as="geometry"/>
                </mxCell>
                <mxCell id="2" value="Mulai" style="ellipse;whiteSpace=wrap;html=1;strokeWidth=4;fontSize=22;fontStyle=1;fillColor=#b0e3e6;strokeColor=#0e8088;" parent="1" vertex="1">
                    <mxGeometry x="50" y="120" width="140" height="140" as="geometry"/>
                </mxCell>
                <mxCell id="11" value="" style="edgeStyle=none;html=1;strokeWidth=3;" parent="1" source="3" target="9" edge="1">
                    <mxGeometry relative="1" as="geometry"/>
                </mxCell>
                <mxCell id="3" value="Merah" style="rounded=1;whiteSpace=wrap;html=1;fillColor=#f8cecc;strokeColor=#b85450;strokeWidth=4;fontStyle=1;fontSize=22;" parent="1" vertex="1">
                    <mxGeometry x="40" y="320" width="160" height="70" as="geometry"/>
                </mxCell>
                <mxCell id="14" value="" style="edgeStyle=none;html=1;strokeWidth=3;" parent="1" source="4" target="13" edge="1">
                    <mxGeometry relative="1" as="geometry"/>
                </mxCell>
                <mxCell id="4" value="Kuning" style="rounded=1;whiteSpace=wrap;html=1;fillColor=#fff2cc;strokeColor=#d6b656;strokeWidth=4;fontStyle=1;fontSize=22;" parent="1" vertex="1">
                    <mxGeometry x="280" y="320" width="160" height="70" as="geometry"/>
                </mxCell>
                <mxCell id="17" value="" style="edgeStyle=none;html=1;strokeWidth=3;" parent="1" source="5" target="15" edge="1">
                    <mxGeometry relative="1" as="geometry"/>
                </mxCell>
                <mxCell id="5" value="Hijau" style="rounded=1;whiteSpace=wrap;html=1;fillColor=#d5e8d4;strokeColor=#82b366;strokeWidth=4;fontStyle=1;fontSize=22;" parent="1" vertex="1">
                    <mxGeometry x="510" y="320" width="160" height="70" as="geometry"/>
                </mxCell>
                <mxCell id="12" style="edgeStyle=orthogonalEdgeStyle;html=1;entryX=0;entryY=0.5;entryDx=0;entryDy=0;strokeWidth=3;" parent="1" source="9" target="4" edge="1">
                    <mxGeometry relative="1" as="geometry"/>
                </mxCell>
                <mxCell id="9" value="5 Detik" style="verticalLabelPosition=bottom;html=1;verticalAlign=top;align=center;strokeColor=none;fillColor=#00BEF2;shape=mxgraph.azure.scheduler;pointerEvents=1;fontSize=18;fontStyle=1" parent="1" vertex="1">
                    <mxGeometry x="72.5" y="440" width="95" height="120" as="geometry"/>
                </mxCell>
                <mxCell id="16" style="edgeStyle=orthogonalEdgeStyle;html=1;entryX=0;entryY=0.5;entryDx=0;entryDy=0;strokeWidth=3;" parent="1" source="13" target="5" edge="1">
                    <mxGeometry relative="1" as="geometry">
                        <Array as="points">
                            <mxPoint x="460" y="500"/>
                            <mxPoint x="460" y="355"/>
                        </Array>
                    </mxGeometry>
                </mxCell>
                <mxCell id="13" value="1 Detik" style="verticalLabelPosition=bottom;html=1;verticalAlign=top;align=center;strokeColor=none;fillColor=#00BEF2;shape=mxgraph.azure.scheduler;pointerEvents=1;fontSize=18;fontStyle=1" parent="1" vertex="1">
                    <mxGeometry x="312.5" y="440" width="95" height="120" as="geometry"/>
                </mxCell>
                <mxCell id="18" style="edgeStyle=orthogonalEdgeStyle;html=1;entryX=1;entryY=0.5;entryDx=0;entryDy=0;strokeWidth=3;" parent="1" source="15" target="2" edge="1">
                    <mxGeometry relative="1" as="geometry">
                        <Array as="points">
                            <mxPoint x="700" y="500"/>
                            <mxPoint x="700" y="190"/>
                        </Array>
                    </mxGeometry>
                </mxCell>
                <mxCell id="15" value="10 Detik" style="verticalLabelPosition=bottom;html=1;verticalAlign=top;align=center;strokeColor=none;fillColor=#00BEF2;shape=mxgraph.azure.scheduler;pointerEvents=1;fontSize=18;fontStyle=1;strokeWidth=3;" parent="1" vertex="1">
                    <mxGeometry x="542.5" y="440" width="95" height="120" as="geometry"/>
                </mxCell>
                <mxCell id="21" value="IR Transmiter" style="sketch=0;points=[[0,0,0],[0.25,0,0],[0.5,0,0],[0.75,0,0],[1,0,0],[0,1,0],[0.25,1,0],[0.5,1,0],[0.75,1,0],[1,1,0],[0,0.25,0],[0,0.5,0],[0,0.75,0],[1,0.25,0],[1,0.5,0],[1,0.75,0]];outlineConnect=0;fillColor=#e1d5e7;strokeColor=#9673a6;dashed=0;verticalLabelPosition=bottom;verticalAlign=top;align=center;html=1;fontSize=16;fontStyle=1;aspect=fixed;shape=mxgraph.aws4.resourceIcon;resIcon=mxgraph.aws4.transit_gateway;strokeWidth=1;" parent="1" vertex="1">
                    <mxGeometry x="300" y="690" width="120" height="120" as="geometry"/>
                </mxCell>
                <mxCell id="22" style="edgeStyle=orthogonalEdgeStyle;html=1;entryX=1;entryY=0.5;entryDx=0;entryDy=0;entryPerimeter=0;fontStyle=0;strokeWidth=3;" parent="1" source="5" target="21" edge="1">
                    <mxGeometry relative="1" as="geometry">
                        <Array as="points">
                            <mxPoint x="530" y="750"/>
                        </Array>
                    </mxGeometry>
                </mxCell>
                <mxCell id="23" style="edgeStyle=orthogonalEdgeStyle;html=1;entryX=0.5;entryY=0;entryDx=0;entryDy=0;entryPerimeter=0;fontStyle=0;strokeWidth=3;" parent="1" source="4" target="21" edge="1">
                    <mxGeometry relative="1" as="geometry">
                        <Array as="points">
                            <mxPoint x="300" y="620"/>
                            <mxPoint x="360" y="620"/>
                        </Array>
                    </mxGeometry>
                </mxCell>
                <mxCell id="24" style="edgeStyle=orthogonalEdgeStyle;html=1;entryX=0;entryY=0.5;entryDx=0;entryDy=0;entryPerimeter=0;fontStyle=0;strokeWidth=3;" parent="1" source="3" target="21" edge="1">
                    <mxGeometry relative="1" as="geometry">
                        <Array as="points">
                            <mxPoint x="60" y="750"/>
                        </Array>
                    </mxGeometry>
                </mxCell>
                <mxCell id="25" value="{ id: ll1&lt;div&gt;val: merahh }&lt;/div&gt;" style="rounded=1;whiteSpace=wrap;html=1;fontStyle=1;fontSize=13;strokeWidth=2;" parent="1" vertex="1">
                    <mxGeometry x="131" y="730" width="100" height="40" as="geometry"/>
                </mxCell>
                <mxCell id="27" value="{ id: ll1&lt;div&gt;val: kuning }&lt;/div&gt;" style="rounded=1;whiteSpace=wrap;html=1;fontStyle=1;fontSize=13;strokeWidth=2;" parent="1" vertex="1">
                    <mxGeometry x="310" y="601" width="100" height="40" as="geometry"/>
                </mxCell>
                <mxCell id="28" value="{ id: ll1&lt;div&gt;val: hijau }&lt;/div&gt;" style="rounded=1;whiteSpace=wrap;html=1;fontStyle=1;fontSize=13;strokeWidth=2;" parent="1" vertex="1">
                    <mxGeometry x="481" y="730" width="100" height="40" as="geometry"/>
                </mxCell>
            </root>
        </mxGraphModel>
    </diagram>
    <diagram id="APQXnnP9T0qjljoypIMI" name="Halte">
        <mxGraphModel dx="866" dy="622" grid="1" gridSize="10" guides="1" tooltips="1" connect="1" arrows="1" fold="1" page="1" pageScale="1" pageWidth="850" pageHeight="1100" math="0" shadow="0">
            <root>
                <mxCell id="0"/>
                <mxCell id="1" parent="0"/>
                <mxCell id="fl0oeHQGdTs-kHQolp1y-1" value="" style="edgeStyle=none;html=1;strokeWidth=3;entryX=0.5;entryY=0;entryDx=0;entryDy=0;entryPerimeter=0;" parent="1" source="fl0oeHQGdTs-kHQolp1y-2" target="fl0oeHQGdTs-kHQolp1y-22" edge="1">
                    <mxGeometry relative="1" as="geometry">
                        <mxPoint x="120" y="320" as="targetPoint"/>
                    </mxGeometry>
                </mxCell>
                <mxCell id="fl0oeHQGdTs-kHQolp1y-2" value="Mulai" style="ellipse;whiteSpace=wrap;html=1;strokeWidth=4;fontSize=22;fontStyle=1;fillColor=#b0e3e6;strokeColor=#0e8088;" parent="1" vertex="1">
                    <mxGeometry x="50" y="120" width="140" height="140" as="geometry"/>
                </mxCell>
                <mxCell id="E5LmazStk1Cv9m7NQY0E-1" style="edgeStyle=orthogonalEdgeStyle;html=1;entryX=1;entryY=0.5;entryDx=0;entryDy=0;strokeWidth=3;" parent="1" source="fl0oeHQGdTs-kHQolp1y-22" target="fl0oeHQGdTs-kHQolp1y-2" edge="1">
                    <mxGeometry relative="1" as="geometry">
                        <Array as="points">
                            <mxPoint x="240" y="440"/>
                            <mxPoint x="240" y="190"/>
                        </Array>
                    </mxGeometry>
                </mxCell>
                <mxCell id="fl0oeHQGdTs-kHQolp1y-22" value="IR Transmiter" style="sketch=0;points=[[0,0,0],[0.25,0,0],[0.5,0,0],[0.75,0,0],[1,0,0],[0,1,0],[0.25,1,0],[0.5,1,0],[0.75,1,0],[1,1,0],[0,0.25,0],[0,0.5,0],[0,0.75,0],[1,0.25,0],[1,0.5,0],[1,0.75,0]];outlineConnect=0;fillColor=#e1d5e7;strokeColor=#9673a6;dashed=0;verticalLabelPosition=bottom;verticalAlign=top;align=center;html=1;fontSize=16;fontStyle=1;aspect=fixed;shape=mxgraph.aws4.resourceIcon;resIcon=mxgraph.aws4.transit_gateway;strokeWidth=1;" parent="1" vertex="1">
                    <mxGeometry x="60" y="380" width="120" height="120" as="geometry"/>
                </mxCell>
                <mxCell id="GsLRHJ7tuZgYiObDvUwQ-1" value="{ id: h-a&lt;div&gt;val: 1 }&lt;/div&gt;" style="rounded=1;whiteSpace=wrap;html=1;fontStyle=1;fontSize=13;strokeWidth=2;" parent="1" vertex="1">
                    <mxGeometry x="70" y="292" width="100" height="40" as="geometry"/>
                </mxCell>
            </root>
        </mxGraphModel>
    </diagram>
    <diagram id="lJbjti_hxWXp452RQWpA" name="Bus">
        <mxGraphModel dx="866" dy="622" grid="1" gridSize="10" guides="1" tooltips="1" connect="1" arrows="1" fold="1" page="1" pageScale="1" pageWidth="850" pageHeight="1100" math="0" shadow="0">
            <root>
                <mxCell id="0"/>
                <mxCell id="1" parent="0"/>
                <mxCell id="ZeWXpjUi9dAmiH1b3cRA-1" value="" style="edgeStyle=none;html=1;strokeWidth=3;entryX=0.5;entryY=0;entryDx=0;entryDy=0;entryPerimeter=0;" parent="1" source="ZeWXpjUi9dAmiH1b3cRA-2" target="ZeWXpjUi9dAmiH1b3cRA-15" edge="1">
                    <mxGeometry relative="1" as="geometry">
                        <mxPoint x="120" y="320" as="targetPoint"/>
                    </mxGeometry>
                </mxCell>
                <mxCell id="ZeWXpjUi9dAmiH1b3cRA-2" value="Mulai" style="ellipse;whiteSpace=wrap;html=1;strokeWidth=4;fontSize=22;fontStyle=1;fillColor=#b0e3e6;strokeColor=#0e8088;" parent="1" vertex="1">
                    <mxGeometry x="50" y="120" width="140" height="140" as="geometry"/>
                </mxCell>
                <mxCell id="xSTVfk9e81M707gcjQ7M-2" value="" style="edgeStyle=none;html=1;strokeWidth=3;" parent="1" source="ZeWXpjUi9dAmiH1b3cRA-15" target="xSTVfk9e81M707gcjQ7M-1" edge="1">
                    <mxGeometry relative="1" as="geometry"/>
                </mxCell>
                <mxCell id="ZeWXpjUi9dAmiH1b3cRA-15" value="IR Receiver" style="sketch=0;points=[[0,0,0],[0.25,0,0],[0.5,0,0],[0.75,0,0],[1,0,0],[0,1,0],[0.25,1,0],[0.5,1,0],[0.75,1,0],[1,1,0],[0,0.25,0],[0,0.5,0],[0,0.75,0],[1,0.25,0],[1,0.5,0],[1,0.75,0]];outlineConnect=0;fillColor=#e1d5e7;strokeColor=#9673a6;dashed=0;verticalLabelPosition=bottom;verticalAlign=top;align=center;html=1;fontSize=16;fontStyle=1;aspect=fixed;shape=mxgraph.aws4.resourceIcon;resIcon=mxgraph.aws4.transit_gateway;strokeWidth=1;" parent="1" vertex="1">
                    <mxGeometry x="60" y="350" width="120" height="120" as="geometry"/>
                </mxCell>
                <mxCell id="xSTVfk9e81M707gcjQ7M-1" value="id == ll" style="rounded=1;whiteSpace=wrap;html=1;strokeWidth=3;" parent="1" vertex="1">
                    <mxGeometry x="240" y="385" width="90" height="50" as="geometry"/>
                </mxCell>
            </root>
        </mxGraphModel>
    </diagram>
</mxfile>